<svg width="16" height="16" viewBox="0 0 16 16" fill="none" xmlns="http://www.w3.org/2000/svg">
<g clip-path="url(#clip0_21_660)">
<path d="M16 8C16 6.41775 15.5308 4.87103 14.6518 3.55544C13.7727 2.23984 12.5233 1.21446 11.0615 0.608962C9.59966 0.00346092 7.99113 -0.154966 6.43928 0.153716C4.88743 0.462398 3.46197 1.22432 2.34315 2.34314C1.22433 3.46196 0.462403 4.88743 0.153721 6.43928C-0.15496 7.99112 0.00346629 9.59966 0.608967 11.0615C1.21447 12.5233 2.23985 13.7727 3.55544 14.6518C4.87104 15.5308 6.41775 16 8 16C10.1217 16 12.1566 15.1571 13.6569 13.6569C15.1571 12.1566 16 10.1217 16 8ZM11.14 10.1867C11.2642 10.3116 11.3339 10.4805 11.3339 10.6567C11.3339 10.8328 11.2642 11.0018 11.14 11.1267C11.078 11.1892 11.0043 11.2387 10.9231 11.2726C10.8418 11.3064 10.7547 11.3239 10.6667 11.3239C10.5787 11.3239 10.4915 11.3064 10.4103 11.2726C10.329 11.2387 10.2553 11.1892 10.1933 11.1267L8.12 9.05333C8.08809 9.02429 8.04649 9.00819 8.00334 9.00819C7.96019 9.00819 7.91858 9.02429 7.88667 9.05333L5.81334 11.1267C5.6858 11.2359 5.52175 11.293 5.35397 11.2865C5.18618 11.28 5.02702 11.2104 4.90829 11.0917C4.78957 10.973 4.72001 10.8138 4.71353 10.646C4.70705 10.4782 4.76412 10.3142 4.87334 10.1867L6.94667 8.11333C6.97572 8.08142 6.99181 8.03982 6.99181 7.99667C6.99181 7.95351 6.97572 7.91191 6.94667 7.88L4.87334 5.80667C4.81085 5.74469 4.76126 5.67096 4.72741 5.58972C4.69356 5.50848 4.67614 5.42134 4.67614 5.33333C4.67614 5.24532 4.69356 5.15819 4.72741 5.07695C4.76126 4.99571 4.81085 4.92197 4.87334 4.86C4.99825 4.73583 5.16721 4.66614 5.34334 4.66614C5.51946 4.66614 5.68843 4.73583 5.81334 4.86L7.88667 6.93333C7.90163 6.94928 7.91971 6.96198 7.93977 6.97067C7.95984 6.97936 7.98147 6.98384 8.00334 6.98384C8.0252 6.98384 8.04684 6.97936 8.0669 6.97067C8.08697 6.96198 8.10504 6.94928 8.12 6.93333L10.1933 4.86C10.2555 4.79784 10.3293 4.74853 10.4105 4.71489C10.4917 4.68125 10.5788 4.66394 10.6667 4.66394C10.7546 4.66394 10.8416 4.68125 10.9228 4.71489C11.0041 4.74853 11.0778 4.79784 11.14 4.86C11.2022 4.92216 11.2515 4.99595 11.2851 5.07717C11.3188 5.15838 11.3361 5.24543 11.3361 5.33333C11.3361 5.42124 11.3188 5.50828 11.2851 5.5895C11.2515 5.67071 11.2022 5.74451 11.14 5.80667L9.06667 7.88C9.05073 7.89496 9.03802 7.91303 9.02933 7.9331C9.02065 7.95317 9.01616 7.9748 9.01616 7.99667C9.01616 8.01853 9.02065 8.04016 9.02933 8.06023C9.03802 8.0803 9.05073 8.09837 9.06667 8.11333L11.14 10.1867Z" fill="#6A2875"/>
</g>
<defs>
<clipPath id="clip0_21_660">
<rect width="16" height="16" fill="white"/>
</clipPath>
</defs>
</svg>
